<mxfile host="Electron" modified="2024-03-12T00:11:24.248Z" agent="Mozilla/5.0 (Windows NT 10.0; Win64; x64) AppleWebKit/537.36 (KHTML, like Gecko) draw.io/23.1.5 Chrome/120.0.6099.109 Electron/28.1.0 Safari/537.36" etag="SbnBJooy_UKl1UoiPkSt" version="23.1.5" type="device">
  <diagram name="Page-1" id="7e0a89b8-554c-2b80-1dc8-d5c74ca68de4">
    <mxGraphModel dx="2089" dy="582" grid="1" gridSize="10" guides="1" tooltips="1" connect="1" arrows="1" fold="1" page="1" pageScale="1" pageWidth="1100" pageHeight="850" background="none" math="0" shadow="0">
      <root>
        <mxCell id="0" />
        <mxCell id="1" parent="0" />
        <mxCell id="-yp7WxZrwhxnNJkC5hRx-53" value="" style="rounded=1;whiteSpace=wrap;html=1;" parent="1" vertex="1">
          <mxGeometry x="450" y="435" width="140" height="225" as="geometry" />
        </mxCell>
        <mxCell id="-yp7WxZrwhxnNJkC5hRx-2" value="" style="pointerEvents=1;verticalLabelPosition=bottom;shadow=0;dashed=0;align=center;html=1;verticalAlign=top;shape=mxgraph.electrical.miscellaneous.batteryStack;direction=south;" parent="1" vertex="1">
          <mxGeometry x="60" y="500" width="60" height="100" as="geometry" />
        </mxCell>
        <mxCell id="-yp7WxZrwhxnNJkC5hRx-3" value="" style="pointerEvents=1;verticalLabelPosition=bottom;shadow=0;dashed=0;align=center;html=1;verticalAlign=top;shape=mxgraph.electrical.electro-mechanical.manualSwitch2;elSwitchState=off;" parent="1" vertex="1">
          <mxGeometry x="220" y="462" width="75" height="18" as="geometry" />
        </mxCell>
        <mxCell id="-yp7WxZrwhxnNJkC5hRx-4" value="" style="pointerEvents=1;verticalLabelPosition=bottom;shadow=0;dashed=0;align=center;html=1;verticalAlign=top;shape=mxgraph.electrical.miscellaneous.fuse_2;" parent="1" vertex="1">
          <mxGeometry x="120" y="470" width="100" height="20" as="geometry" />
        </mxCell>
        <mxCell id="-yp7WxZrwhxnNJkC5hRx-6" value="" style="endArrow=none;html=1;rounded=0;exitX=0;exitY=0.5;exitDx=0;exitDy=0;entryX=0;entryY=0.5;entryDx=0;entryDy=0;entryPerimeter=0;" parent="1" source="-yp7WxZrwhxnNJkC5hRx-2" target="-yp7WxZrwhxnNJkC5hRx-4" edge="1">
          <mxGeometry width="50" height="50" relative="1" as="geometry">
            <mxPoint x="150" y="510" as="sourcePoint" />
            <mxPoint x="200" y="460" as="targetPoint" />
            <Array as="points">
              <mxPoint x="90" y="480" />
            </Array>
          </mxGeometry>
        </mxCell>
        <mxCell id="-yp7WxZrwhxnNJkC5hRx-8" value="" style="endArrow=none;html=1;rounded=0;entryX=0;entryY=1;entryDx=0;entryDy=0;entryPerimeter=0;exitX=1;exitY=0.5;exitDx=0;exitDy=0;exitPerimeter=0;" parent="1" source="-yp7WxZrwhxnNJkC5hRx-4" target="-yp7WxZrwhxnNJkC5hRx-3" edge="1">
          <mxGeometry width="50" height="50" relative="1" as="geometry">
            <mxPoint x="150" y="510" as="sourcePoint" />
            <mxPoint x="200" y="460" as="targetPoint" />
          </mxGeometry>
        </mxCell>
        <mxCell id="-yp7WxZrwhxnNJkC5hRx-9" value="" style="pointerEvents=1;verticalLabelPosition=bottom;shadow=0;dashed=0;align=center;html=1;verticalAlign=top;shape=mxgraph.electrical.capacitors.capacitor_1;direction=south;" parent="1" vertex="1">
          <mxGeometry x="470" y="480" width="60" height="120" as="geometry" />
        </mxCell>
        <mxCell id="-yp7WxZrwhxnNJkC5hRx-11" value="" style="pointerEvents=1;verticalLabelPosition=bottom;shadow=0;dashed=0;align=center;html=1;verticalAlign=top;shape=mxgraph.electrical.resistors.resistor_1;direction=south;" parent="1" vertex="1">
          <mxGeometry x="550" y="480" width="20" height="120" as="geometry" />
        </mxCell>
        <mxCell id="-yp7WxZrwhxnNJkC5hRx-12" value="" style="pointerEvents=1;verticalLabelPosition=bottom;shadow=0;dashed=0;align=center;html=1;verticalAlign=top;shape=mxgraph.electrical.resistors.resistor_2;direction=west;" parent="1" vertex="1">
          <mxGeometry x="120" y="590" width="100" height="20" as="geometry" />
        </mxCell>
        <mxCell id="-yp7WxZrwhxnNJkC5hRx-13" value="" style="pointerEvents=1;verticalLabelPosition=bottom;shadow=0;dashed=0;align=center;html=1;verticalAlign=top;shape=mxgraph.electrical.electro-mechanical.reedSwitch2;elSwitchState=off;" parent="1" vertex="1">
          <mxGeometry x="230" y="590" width="75" height="20" as="geometry" />
        </mxCell>
        <mxCell id="-yp7WxZrwhxnNJkC5hRx-15" value="" style="pointerEvents=1;verticalLabelPosition=bottom;shadow=0;dashed=0;align=center;html=1;verticalAlign=top;shape=mxgraph.electrical.electro-mechanical.isolatorSwitch2;elSwitchState=off;" parent="1" vertex="1">
          <mxGeometry x="230" y="622" width="75" height="20" as="geometry" />
        </mxCell>
        <mxCell id="-yp7WxZrwhxnNJkC5hRx-16" value="" style="endArrow=none;html=1;rounded=0;exitX=1;exitY=0.5;exitDx=0;exitDy=0;entryX=1;entryY=0.5;entryDx=0;entryDy=0;entryPerimeter=0;" parent="1" source="-yp7WxZrwhxnNJkC5hRx-2" target="-yp7WxZrwhxnNJkC5hRx-12" edge="1">
          <mxGeometry width="50" height="50" relative="1" as="geometry">
            <mxPoint x="210" y="510" as="sourcePoint" />
            <mxPoint x="260" y="460" as="targetPoint" />
          </mxGeometry>
        </mxCell>
        <mxCell id="-yp7WxZrwhxnNJkC5hRx-17" value="" style="endArrow=none;html=1;rounded=0;exitX=0;exitY=0.5;exitDx=0;exitDy=0;entryX=0;entryY=0.5;entryDx=0;entryDy=0;exitPerimeter=0;" parent="1" source="-yp7WxZrwhxnNJkC5hRx-12" target="-yp7WxZrwhxnNJkC5hRx-13" edge="1">
          <mxGeometry width="50" height="50" relative="1" as="geometry">
            <mxPoint x="100" y="610" as="sourcePoint" />
            <mxPoint x="130" y="610" as="targetPoint" />
          </mxGeometry>
        </mxCell>
        <mxCell id="-yp7WxZrwhxnNJkC5hRx-18" value="" style="endArrow=none;html=1;rounded=0;entryX=0;entryY=0.8;entryDx=0;entryDy=0;" parent="1" target="-yp7WxZrwhxnNJkC5hRx-15" edge="1">
          <mxGeometry width="50" height="50" relative="1" as="geometry">
            <mxPoint x="90" y="638" as="sourcePoint" />
            <mxPoint x="227" y="638" as="targetPoint" />
          </mxGeometry>
        </mxCell>
        <mxCell id="-yp7WxZrwhxnNJkC5hRx-20" value="" style="endArrow=none;html=1;rounded=0;" parent="1" edge="1">
          <mxGeometry width="50" height="50" relative="1" as="geometry">
            <mxPoint x="90" y="600" as="sourcePoint" />
            <mxPoint x="90" y="638" as="targetPoint" />
          </mxGeometry>
        </mxCell>
        <mxCell id="-yp7WxZrwhxnNJkC5hRx-22" value="" style="endArrow=none;html=1;rounded=0;exitX=0;exitY=0.5;exitDx=0;exitDy=0;" parent="1" source="-yp7WxZrwhxnNJkC5hRx-2" edge="1">
          <mxGeometry width="50" height="50" relative="1" as="geometry">
            <mxPoint x="10" y="470" as="sourcePoint" />
            <mxPoint x="60" y="460" as="targetPoint" />
            <Array as="points">
              <mxPoint x="60" y="500" />
            </Array>
          </mxGeometry>
        </mxCell>
        <mxCell id="-yp7WxZrwhxnNJkC5hRx-23" value="" style="endArrow=none;html=1;rounded=0;exitX=0;exitY=0.5;exitDx=0;exitDy=0;" parent="1" edge="1">
          <mxGeometry width="50" height="50" relative="1" as="geometry">
            <mxPoint x="90" y="610" as="sourcePoint" />
            <mxPoint x="40" y="460" as="targetPoint" />
            <Array as="points">
              <mxPoint x="60" y="610" />
              <mxPoint x="40" y="610" />
              <mxPoint x="40" y="590" />
            </Array>
          </mxGeometry>
        </mxCell>
        <mxCell id="-yp7WxZrwhxnNJkC5hRx-24" value="" style="verticalLabelPosition=bottom;shadow=0;dashed=0;align=center;html=1;verticalAlign=top;strokeWidth=1;shape=ellipse;perimeter=ellipsePerimeter;" parent="1" vertex="1">
          <mxGeometry x="30" y="425" width="40" height="40" as="geometry" />
        </mxCell>
        <mxCell id="-yp7WxZrwhxnNJkC5hRx-27" value="&lt;span style=&quot;color: rgb(0, 0, 0); font-family: Helvetica; font-size: 12px; font-style: normal; font-variant-ligatures: normal; font-variant-caps: normal; font-weight: 400; letter-spacing: normal; orphans: 2; text-indent: 0px; text-transform: none; widows: 2; word-spacing: 0px; -webkit-text-stroke-width: 0px; background-color: rgb(251, 251, 251); text-decoration-thickness: initial; text-decoration-style: initial; text-decoration-color: initial; float: none; display: inline !important;&quot;&gt;IMD&lt;/span&gt;" style="text;whiteSpace=wrap;html=1;align=center;verticalAlign=middle;" parent="1" vertex="1">
          <mxGeometry x="35" y="435" width="30" height="20" as="geometry" />
        </mxCell>
        <mxCell id="-yp7WxZrwhxnNJkC5hRx-28" value="" style="endArrow=none;html=1;rounded=0;entryX=1;entryY=0.5;entryDx=0;entryDy=0;exitX=0;exitY=0.5;exitDx=0;exitDy=0;" parent="1" source="-yp7WxZrwhxnNJkC5hRx-24" target="-yp7WxZrwhxnNJkC5hRx-31" edge="1">
          <mxGeometry width="50" height="50" relative="1" as="geometry">
            <mxPoint x="50" y="425" as="sourcePoint" />
            <mxPoint x="50" y="400" as="targetPoint" />
          </mxGeometry>
        </mxCell>
        <mxCell id="-yp7WxZrwhxnNJkC5hRx-31" value="Chassis GND" style="ellipse;whiteSpace=wrap;html=1;" parent="1" vertex="1">
          <mxGeometry x="-80" y="412.5" width="80" height="65" as="geometry" />
        </mxCell>
        <mxCell id="-yp7WxZrwhxnNJkC5hRx-32" value="" style="verticalLabelPosition=bottom;shadow=0;dashed=0;align=center;html=1;verticalAlign=top;shape=mxgraph.electrical.transmission.8_line_bus;" parent="1" vertex="1">
          <mxGeometry x="90" y="543.5" width="90" height="15" as="geometry" />
        </mxCell>
        <mxCell id="-yp7WxZrwhxnNJkC5hRx-34" value="BMS" style="rounded=1;whiteSpace=wrap;html=1;" parent="1" vertex="1">
          <mxGeometry x="180" y="530" width="50" height="40" as="geometry" />
        </mxCell>
        <mxCell id="-yp7WxZrwhxnNJkC5hRx-35" value="" style="endArrow=none;html=1;rounded=0;exitX=0.995;exitY=0.998;exitDx=0;exitDy=0;exitPerimeter=0;entryX=0;entryY=0.5;entryDx=0;entryDy=0;entryPerimeter=0;" parent="1" source="-yp7WxZrwhxnNJkC5hRx-3" target="-yp7WxZrwhxnNJkC5hRx-11" edge="1">
          <mxGeometry width="50" height="50" relative="1" as="geometry">
            <mxPoint x="300" y="480" as="sourcePoint" />
            <mxPoint x="400" y="520" as="targetPoint" />
          </mxGeometry>
        </mxCell>
        <mxCell id="-yp7WxZrwhxnNJkC5hRx-38" value="" style="endArrow=none;html=1;rounded=0;exitX=0.995;exitY=0.998;exitDx=0;exitDy=0;exitPerimeter=0;" parent="1" edge="1">
          <mxGeometry width="50" height="50" relative="1" as="geometry">
            <mxPoint x="305" y="600" as="sourcePoint" />
            <mxPoint x="560" y="600" as="targetPoint" />
          </mxGeometry>
        </mxCell>
        <mxCell id="-yp7WxZrwhxnNJkC5hRx-39" value="" style="endArrow=none;html=1;rounded=0;" parent="1" edge="1">
          <mxGeometry width="50" height="50" relative="1" as="geometry">
            <mxPoint x="305" y="638" as="sourcePoint" />
            <mxPoint x="560" y="600" as="targetPoint" />
            <Array as="points">
              <mxPoint x="560" y="638" />
            </Array>
          </mxGeometry>
        </mxCell>
        <mxCell id="-yp7WxZrwhxnNJkC5hRx-43" value="" style="pointerEvents=1;verticalLabelPosition=bottom;shadow=0;dashed=0;align=center;html=1;verticalAlign=top;shape=mxgraph.electrical.electro-mechanical.isolatorSwitch2;elSwitchState=off;direction=south;" parent="1" vertex="1">
          <mxGeometry x="356" y="540" width="20" height="50" as="geometry" />
        </mxCell>
        <mxCell id="-yp7WxZrwhxnNJkC5hRx-44" value="" style="endArrow=none;html=1;rounded=0;exitX=1;exitY=0.8;exitDx=0;exitDy=0;" parent="1" source="-yp7WxZrwhxnNJkC5hRx-43" edge="1">
          <mxGeometry width="50" height="50" relative="1" as="geometry">
            <mxPoint x="290" y="590" as="sourcePoint" />
            <mxPoint x="360" y="600" as="targetPoint" />
          </mxGeometry>
        </mxCell>
        <mxCell id="-yp7WxZrwhxnNJkC5hRx-45" value="" style="pointerEvents=1;verticalLabelPosition=bottom;shadow=0;dashed=0;align=center;html=1;verticalAlign=top;shape=mxgraph.electrical.resistors.resistor_2;direction=north;" parent="1" vertex="1">
          <mxGeometry x="350" y="480" width="20" height="60" as="geometry" />
        </mxCell>
        <mxCell id="-yp7WxZrwhxnNJkC5hRx-46" value="Fuse (in MSD)" style="text;html=1;align=center;verticalAlign=middle;whiteSpace=wrap;rounded=0;" parent="1" vertex="1">
          <mxGeometry x="126" y="440" width="88" height="30" as="geometry" />
        </mxCell>
        <mxCell id="-yp7WxZrwhxnNJkC5hRx-47" value="MSD" style="text;html=1;align=center;verticalAlign=middle;whiteSpace=wrap;rounded=0;" parent="1" vertex="1">
          <mxGeometry x="227.5" y="440" width="60" height="30" as="geometry" />
        </mxCell>
        <mxCell id="-yp7WxZrwhxnNJkC5hRx-48" value="Precharge Resistor" style="text;html=1;align=center;verticalAlign=middle;whiteSpace=wrap;rounded=0;" parent="1" vertex="1">
          <mxGeometry x="140" y="610" width="60" height="30" as="geometry" />
        </mxCell>
        <mxCell id="-yp7WxZrwhxnNJkC5hRx-49" value="Power Relay" style="text;html=1;align=center;verticalAlign=middle;whiteSpace=wrap;rounded=0;" parent="1" vertex="1">
          <mxGeometry x="235" y="640" width="60" height="30" as="geometry" />
        </mxCell>
        <mxCell id="-yp7WxZrwhxnNJkC5hRx-50" value="Precharge Relay" style="text;html=1;align=center;verticalAlign=middle;whiteSpace=wrap;rounded=0;" parent="1" vertex="1">
          <mxGeometry x="202" y="610" width="60" height="30" as="geometry" />
        </mxCell>
        <mxCell id="-yp7WxZrwhxnNJkC5hRx-51" value="Discharge Resistor" style="text;html=1;align=center;verticalAlign=middle;whiteSpace=wrap;rounded=0;" parent="1" vertex="1">
          <mxGeometry x="290" y="495" width="60" height="30" as="geometry" />
        </mxCell>
        <mxCell id="-yp7WxZrwhxnNJkC5hRx-52" value="Discharge&lt;br&gt;Relay" style="text;html=1;align=center;verticalAlign=middle;whiteSpace=wrap;rounded=0;" parent="1" vertex="1">
          <mxGeometry x="290" y="550" width="60" height="30" as="geometry" />
        </mxCell>
        <mxCell id="-yp7WxZrwhxnNJkC5hRx-54" value="Inverter" style="text;html=1;align=center;verticalAlign=middle;whiteSpace=wrap;rounded=0;" parent="1" vertex="1">
          <mxGeometry x="490" y="435" width="60" height="30" as="geometry" />
        </mxCell>
        <mxCell id="-yp7WxZrwhxnNJkC5hRx-55" value="Load" style="text;html=1;align=center;verticalAlign=middle;whiteSpace=wrap;rounded=0;" parent="1" vertex="1">
          <mxGeometry x="510" y="480" width="60" height="30" as="geometry" />
        </mxCell>
        <mxCell id="-yp7WxZrwhxnNJkC5hRx-56" value="DC Link&lt;br&gt;Cap." style="text;html=1;align=center;verticalAlign=middle;whiteSpace=wrap;rounded=0;" parent="1" vertex="1">
          <mxGeometry x="442" y="480" width="60" height="30" as="geometry" />
        </mxCell>
        <mxCell id="8sGMjqeMXZ33-afPzOO0-1" value="" style="rounded=1;whiteSpace=wrap;html=1;" vertex="1" parent="1">
          <mxGeometry x="-309" y="762.5" width="140" height="225" as="geometry" />
        </mxCell>
        <mxCell id="8sGMjqeMXZ33-afPzOO0-2" value="" style="pointerEvents=1;verticalLabelPosition=bottom;shadow=0;dashed=0;align=center;html=1;verticalAlign=top;shape=mxgraph.electrical.miscellaneous.batteryStack;direction=south;" vertex="1" parent="1">
          <mxGeometry x="-770" y="827.5" width="60" height="100" as="geometry" />
        </mxCell>
        <mxCell id="8sGMjqeMXZ33-afPzOO0-3" value="" style="pointerEvents=1;verticalLabelPosition=bottom;shadow=0;dashed=0;align=center;html=1;verticalAlign=top;shape=mxgraph.electrical.electro-mechanical.manualSwitch2;elSwitchState=off;" vertex="1" parent="1">
          <mxGeometry x="-539" y="790" width="75" height="18" as="geometry" />
        </mxCell>
        <mxCell id="8sGMjqeMXZ33-afPzOO0-4" value="" style="pointerEvents=1;verticalLabelPosition=bottom;shadow=0;dashed=0;align=center;html=1;verticalAlign=top;shape=mxgraph.electrical.miscellaneous.fuse_2;" vertex="1" parent="1">
          <mxGeometry x="-626.5" y="798" width="100" height="20" as="geometry" />
        </mxCell>
        <mxCell id="8sGMjqeMXZ33-afPzOO0-6" value="" style="endArrow=none;html=1;rounded=0;entryX=0;entryY=1;entryDx=0;entryDy=0;entryPerimeter=0;exitX=1;exitY=0.5;exitDx=0;exitDy=0;exitPerimeter=0;" edge="1" parent="1" source="8sGMjqeMXZ33-afPzOO0-4" target="8sGMjqeMXZ33-afPzOO0-3">
          <mxGeometry width="50" height="50" relative="1" as="geometry">
            <mxPoint x="-680" y="837.5" as="sourcePoint" />
            <mxPoint x="-630" y="787.5" as="targetPoint" />
          </mxGeometry>
        </mxCell>
        <mxCell id="8sGMjqeMXZ33-afPzOO0-7" value="" style="pointerEvents=1;verticalLabelPosition=bottom;shadow=0;dashed=0;align=center;html=1;verticalAlign=top;shape=mxgraph.electrical.capacitors.capacitor_1;direction=south;" vertex="1" parent="1">
          <mxGeometry x="-289" y="807.5" width="60" height="120" as="geometry" />
        </mxCell>
        <mxCell id="8sGMjqeMXZ33-afPzOO0-8" value="" style="pointerEvents=1;verticalLabelPosition=bottom;shadow=0;dashed=0;align=center;html=1;verticalAlign=top;shape=mxgraph.electrical.resistors.resistor_1;direction=south;" vertex="1" parent="1">
          <mxGeometry x="-209" y="807.5" width="20" height="120" as="geometry" />
        </mxCell>
        <mxCell id="8sGMjqeMXZ33-afPzOO0-9" value="" style="pointerEvents=1;verticalLabelPosition=bottom;shadow=0;dashed=0;align=center;html=1;verticalAlign=top;shape=mxgraph.electrical.resistors.resistor_2;direction=west;" vertex="1" parent="1">
          <mxGeometry x="-710" y="917.5" width="100" height="20" as="geometry" />
        </mxCell>
        <mxCell id="8sGMjqeMXZ33-afPzOO0-10" value="" style="pointerEvents=1;verticalLabelPosition=bottom;shadow=0;dashed=0;align=center;html=1;verticalAlign=top;shape=mxgraph.electrical.electro-mechanical.reedSwitch2;elSwitchState=off;" vertex="1" parent="1">
          <mxGeometry x="-600" y="917.5" width="75" height="20" as="geometry" />
        </mxCell>
        <mxCell id="8sGMjqeMXZ33-afPzOO0-11" value="" style="pointerEvents=1;verticalLabelPosition=bottom;shadow=0;dashed=0;align=center;html=1;verticalAlign=top;shape=mxgraph.electrical.electro-mechanical.isolatorSwitch2;elSwitchState=off;" vertex="1" parent="1">
          <mxGeometry x="-600" y="949.5" width="75" height="20" as="geometry" />
        </mxCell>
        <mxCell id="8sGMjqeMXZ33-afPzOO0-12" value="" style="endArrow=none;html=1;rounded=0;exitX=1;exitY=0.5;exitDx=0;exitDy=0;entryX=1;entryY=0.5;entryDx=0;entryDy=0;entryPerimeter=0;" edge="1" parent="1" source="8sGMjqeMXZ33-afPzOO0-2" target="8sGMjqeMXZ33-afPzOO0-9">
          <mxGeometry width="50" height="50" relative="1" as="geometry">
            <mxPoint x="-620" y="837.5" as="sourcePoint" />
            <mxPoint x="-570" y="787.5" as="targetPoint" />
          </mxGeometry>
        </mxCell>
        <mxCell id="8sGMjqeMXZ33-afPzOO0-13" value="" style="endArrow=none;html=1;rounded=0;exitX=0;exitY=0.5;exitDx=0;exitDy=0;entryX=0;entryY=0.5;entryDx=0;entryDy=0;exitPerimeter=0;" edge="1" parent="1" source="8sGMjqeMXZ33-afPzOO0-9" target="8sGMjqeMXZ33-afPzOO0-10">
          <mxGeometry width="50" height="50" relative="1" as="geometry">
            <mxPoint x="-730" y="937.5" as="sourcePoint" />
            <mxPoint x="-700" y="937.5" as="targetPoint" />
          </mxGeometry>
        </mxCell>
        <mxCell id="8sGMjqeMXZ33-afPzOO0-14" value="" style="endArrow=none;html=1;rounded=0;entryX=0;entryY=0.8;entryDx=0;entryDy=0;" edge="1" parent="1" target="8sGMjqeMXZ33-afPzOO0-11">
          <mxGeometry width="50" height="50" relative="1" as="geometry">
            <mxPoint x="-740" y="965.5" as="sourcePoint" />
            <mxPoint x="-603" y="965.5" as="targetPoint" />
          </mxGeometry>
        </mxCell>
        <mxCell id="8sGMjqeMXZ33-afPzOO0-15" value="" style="endArrow=none;html=1;rounded=0;" edge="1" parent="1">
          <mxGeometry width="50" height="50" relative="1" as="geometry">
            <mxPoint x="-740" y="927.5" as="sourcePoint" />
            <mxPoint x="-740" y="965.5" as="targetPoint" />
          </mxGeometry>
        </mxCell>
        <mxCell id="8sGMjqeMXZ33-afPzOO0-16" value="" style="endArrow=none;html=1;rounded=0;exitX=0;exitY=0.5;exitDx=0;exitDy=0;" edge="1" parent="1" source="8sGMjqeMXZ33-afPzOO0-2">
          <mxGeometry width="50" height="50" relative="1" as="geometry">
            <mxPoint x="-820" y="797.5" as="sourcePoint" />
            <mxPoint x="-770" y="787.5" as="targetPoint" />
            <Array as="points">
              <mxPoint x="-770" y="827.5" />
            </Array>
          </mxGeometry>
        </mxCell>
        <mxCell id="8sGMjqeMXZ33-afPzOO0-17" value="" style="endArrow=none;html=1;rounded=0;exitX=0;exitY=0.5;exitDx=0;exitDy=0;" edge="1" parent="1">
          <mxGeometry width="50" height="50" relative="1" as="geometry">
            <mxPoint x="-740" y="937.5" as="sourcePoint" />
            <mxPoint x="-790" y="787.5" as="targetPoint" />
            <Array as="points">
              <mxPoint x="-770" y="937.5" />
              <mxPoint x="-790" y="937.5" />
              <mxPoint x="-790" y="917.5" />
            </Array>
          </mxGeometry>
        </mxCell>
        <mxCell id="8sGMjqeMXZ33-afPzOO0-18" value="" style="verticalLabelPosition=bottom;shadow=0;dashed=0;align=center;html=1;verticalAlign=top;strokeWidth=1;shape=ellipse;perimeter=ellipsePerimeter;" vertex="1" parent="1">
          <mxGeometry x="-800" y="752.5" width="40" height="40" as="geometry" />
        </mxCell>
        <mxCell id="8sGMjqeMXZ33-afPzOO0-19" value="&lt;span style=&quot;color: rgb(0, 0, 0); font-family: Helvetica; font-size: 12px; font-style: normal; font-variant-ligatures: normal; font-variant-caps: normal; font-weight: 400; letter-spacing: normal; orphans: 2; text-indent: 0px; text-transform: none; widows: 2; word-spacing: 0px; -webkit-text-stroke-width: 0px; background-color: rgb(251, 251, 251); text-decoration-thickness: initial; text-decoration-style: initial; text-decoration-color: initial; float: none; display: inline !important;&quot;&gt;IMD&lt;/span&gt;" style="text;whiteSpace=wrap;html=1;align=center;verticalAlign=middle;" vertex="1" parent="1">
          <mxGeometry x="-795" y="762.5" width="30" height="20" as="geometry" />
        </mxCell>
        <mxCell id="8sGMjqeMXZ33-afPzOO0-20" value="" style="endArrow=none;html=1;rounded=0;entryX=1;entryY=0.5;entryDx=0;entryDy=0;exitX=0;exitY=0.5;exitDx=0;exitDy=0;" edge="1" parent="1" source="8sGMjqeMXZ33-afPzOO0-18" target="8sGMjqeMXZ33-afPzOO0-21">
          <mxGeometry width="50" height="50" relative="1" as="geometry">
            <mxPoint x="-780" y="752.5" as="sourcePoint" />
            <mxPoint x="-780" y="727.5" as="targetPoint" />
          </mxGeometry>
        </mxCell>
        <mxCell id="8sGMjqeMXZ33-afPzOO0-21" value="Chassis GND" style="ellipse;whiteSpace=wrap;html=1;" vertex="1" parent="1">
          <mxGeometry x="-900" y="740" width="80" height="65" as="geometry" />
        </mxCell>
        <mxCell id="8sGMjqeMXZ33-afPzOO0-22" value="" style="verticalLabelPosition=bottom;shadow=0;dashed=0;align=center;html=1;verticalAlign=top;shape=mxgraph.electrical.transmission.8_line_bus;" vertex="1" parent="1">
          <mxGeometry x="-740" y="871" width="90" height="15" as="geometry" />
        </mxCell>
        <mxCell id="8sGMjqeMXZ33-afPzOO0-23" value="BMS" style="rounded=1;whiteSpace=wrap;html=1;" vertex="1" parent="1">
          <mxGeometry x="-650" y="857.5" width="50" height="40" as="geometry" />
        </mxCell>
        <mxCell id="8sGMjqeMXZ33-afPzOO0-24" value="" style="endArrow=none;html=1;rounded=0;exitX=0.995;exitY=0.998;exitDx=0;exitDy=0;exitPerimeter=0;entryX=0;entryY=0.5;entryDx=0;entryDy=0;entryPerimeter=0;" edge="1" parent="1" target="8sGMjqeMXZ33-afPzOO0-8">
          <mxGeometry width="50" height="50" relative="1" as="geometry">
            <mxPoint x="-464.375" y="808" as="sourcePoint" />
            <mxPoint x="-359" y="847.5" as="targetPoint" />
          </mxGeometry>
        </mxCell>
        <mxCell id="8sGMjqeMXZ33-afPzOO0-25" value="" style="endArrow=none;html=1;rounded=0;exitX=0.995;exitY=0.998;exitDx=0;exitDy=0;exitPerimeter=0;" edge="1" parent="1">
          <mxGeometry width="50" height="50" relative="1" as="geometry">
            <mxPoint x="-454" y="927.5" as="sourcePoint" />
            <mxPoint x="-199" y="927.5" as="targetPoint" />
          </mxGeometry>
        </mxCell>
        <mxCell id="8sGMjqeMXZ33-afPzOO0-26" value="" style="endArrow=none;html=1;rounded=0;" edge="1" parent="1">
          <mxGeometry width="50" height="50" relative="1" as="geometry">
            <mxPoint x="-454" y="965.5" as="sourcePoint" />
            <mxPoint x="-199" y="927.5" as="targetPoint" />
            <Array as="points">
              <mxPoint x="-199" y="965.5" />
            </Array>
          </mxGeometry>
        </mxCell>
        <mxCell id="8sGMjqeMXZ33-afPzOO0-27" value="" style="pointerEvents=1;verticalLabelPosition=bottom;shadow=0;dashed=0;align=center;html=1;verticalAlign=top;shape=mxgraph.electrical.electro-mechanical.isolatorSwitch2;elSwitchState=off;direction=south;" vertex="1" parent="1">
          <mxGeometry x="-403" y="880" width="20" height="37.5" as="geometry" />
        </mxCell>
        <mxCell id="8sGMjqeMXZ33-afPzOO0-28" value="" style="endArrow=none;html=1;rounded=0;exitX=1;exitY=0.8;exitDx=0;exitDy=0;" edge="1" parent="1" source="8sGMjqeMXZ33-afPzOO0-27">
          <mxGeometry width="50" height="50" relative="1" as="geometry">
            <mxPoint x="-469" y="917.5" as="sourcePoint" />
            <mxPoint x="-399" y="927.5" as="targetPoint" />
          </mxGeometry>
        </mxCell>
        <mxCell id="8sGMjqeMXZ33-afPzOO0-29" value="" style="pointerEvents=1;verticalLabelPosition=bottom;shadow=0;dashed=0;align=center;html=1;verticalAlign=top;shape=mxgraph.electrical.resistors.resistor_2;direction=north;" vertex="1" parent="1">
          <mxGeometry x="-409" y="807.5" width="20" height="72.5" as="geometry" />
        </mxCell>
        <mxCell id="8sGMjqeMXZ33-afPzOO0-30" value="Fuse (in MSD)" style="text;html=1;align=center;verticalAlign=middle;whiteSpace=wrap;rounded=0;" vertex="1" parent="1">
          <mxGeometry x="-620.5" y="770" width="88" height="30" as="geometry" />
        </mxCell>
        <mxCell id="8sGMjqeMXZ33-afPzOO0-31" value="MSD" style="text;html=1;align=center;verticalAlign=middle;whiteSpace=wrap;rounded=0;" vertex="1" parent="1">
          <mxGeometry x="-532.5" y="770" width="60" height="30" as="geometry" />
        </mxCell>
        <mxCell id="8sGMjqeMXZ33-afPzOO0-32" value="Precharge Resistor" style="text;html=1;align=center;verticalAlign=middle;whiteSpace=wrap;rounded=0;" vertex="1" parent="1">
          <mxGeometry x="-690" y="937.5" width="60" height="30" as="geometry" />
        </mxCell>
        <mxCell id="8sGMjqeMXZ33-afPzOO0-33" value="Power Relay" style="text;html=1;align=center;verticalAlign=middle;whiteSpace=wrap;rounded=0;" vertex="1" parent="1">
          <mxGeometry x="-694" y="760" width="60" height="30" as="geometry" />
        </mxCell>
        <mxCell id="8sGMjqeMXZ33-afPzOO0-34" value="Precharge Relay" style="text;html=1;align=center;verticalAlign=middle;whiteSpace=wrap;rounded=0;" vertex="1" parent="1">
          <mxGeometry x="-628" y="937.5" width="58" height="22.5" as="geometry" />
        </mxCell>
        <mxCell id="8sGMjqeMXZ33-afPzOO0-35" value="Discharge Resistor" style="text;html=1;align=center;verticalAlign=middle;whiteSpace=wrap;rounded=0;" vertex="1" parent="1">
          <mxGeometry x="-480" y="825" width="60" height="30" as="geometry" />
        </mxCell>
        <mxCell id="8sGMjqeMXZ33-afPzOO0-36" value="Discharge&lt;br&gt;Relay" style="text;html=1;align=center;verticalAlign=middle;whiteSpace=wrap;rounded=0;" vertex="1" parent="1">
          <mxGeometry x="-480" y="880" width="60" height="30" as="geometry" />
        </mxCell>
        <mxCell id="8sGMjqeMXZ33-afPzOO0-37" value="Inverter" style="text;html=1;align=center;verticalAlign=middle;whiteSpace=wrap;rounded=0;" vertex="1" parent="1">
          <mxGeometry x="-269" y="762.5" width="60" height="30" as="geometry" />
        </mxCell>
        <mxCell id="8sGMjqeMXZ33-afPzOO0-38" value="Load" style="text;html=1;align=center;verticalAlign=middle;whiteSpace=wrap;rounded=0;" vertex="1" parent="1">
          <mxGeometry x="-249" y="807.5" width="60" height="30" as="geometry" />
        </mxCell>
        <mxCell id="8sGMjqeMXZ33-afPzOO0-39" value="DC Link&lt;br&gt;Cap." style="text;html=1;align=center;verticalAlign=middle;whiteSpace=wrap;rounded=0;" vertex="1" parent="1">
          <mxGeometry x="-317" y="807.5" width="60" height="30" as="geometry" />
        </mxCell>
        <mxCell id="8sGMjqeMXZ33-afPzOO0-41" value="" style="endArrow=none;html=1;rounded=0;exitX=1;exitY=0.5;exitDx=0;exitDy=0;endSize=0;" edge="1" parent="1">
          <mxGeometry width="50" height="50" relative="1" as="geometry">
            <mxPoint x="-524.9999999999999" y="927.5" as="sourcePoint" />
            <mxPoint x="-450" y="927.5" as="targetPoint" />
          </mxGeometry>
        </mxCell>
        <mxCell id="8sGMjqeMXZ33-afPzOO0-42" value="" style="endArrow=none;html=1;rounded=0;exitX=1;exitY=0.5;exitDx=0;exitDy=0;endSize=0;" edge="1" parent="1">
          <mxGeometry width="50" height="50" relative="1" as="geometry">
            <mxPoint x="-524.9999999999999" y="965.5" as="sourcePoint" />
            <mxPoint x="-450" y="965.5" as="targetPoint" />
          </mxGeometry>
        </mxCell>
        <mxCell id="8sGMjqeMXZ33-afPzOO0-43" value="965.5" style="text;whiteSpace=wrap;" vertex="1" parent="1">
          <mxGeometry x="-790" y="730" width="60" height="40" as="geometry" />
        </mxCell>
        <mxCell id="8sGMjqeMXZ33-afPzOO0-47" value="" style="endArrow=none;html=1;rounded=0;exitX=0;exitY=0.5;exitDx=0;exitDy=0;entryX=0;entryY=0.8;entryDx=0;entryDy=0;" edge="1" parent="1">
          <mxGeometry width="50" height="50" relative="1" as="geometry">
            <mxPoint x="-740" y="827.5000000000001" as="sourcePoint" />
            <mxPoint x="-701.5" y="808" as="targetPoint" />
            <Array as="points">
              <mxPoint x="-740" y="807.5" />
            </Array>
          </mxGeometry>
        </mxCell>
        <mxCell id="8sGMjqeMXZ33-afPzOO0-45" value="" style="pointerEvents=1;verticalLabelPosition=bottom;shadow=0;dashed=0;align=center;html=1;verticalAlign=top;shape=mxgraph.electrical.electro-mechanical.isolatorSwitch2;elSwitchState=off;" vertex="1" parent="1">
          <mxGeometry x="-701.5" y="792" width="75" height="20" as="geometry" />
        </mxCell>
        <mxCell id="8sGMjqeMXZ33-afPzOO0-48" value="Power Relay" style="text;html=1;align=center;verticalAlign=middle;whiteSpace=wrap;rounded=0;" vertex="1" parent="1">
          <mxGeometry x="-592.5" y="967.5" width="60" height="30" as="geometry" />
        </mxCell>
        <mxCell id="8sGMjqeMXZ33-afPzOO0-49" value="" style="pointerEvents=1;verticalLabelPosition=bottom;shadow=0;dashed=0;align=center;html=1;verticalAlign=top;shape=mxgraph.electrical.signal_sources.signal_ground;" vertex="1" parent="1">
          <mxGeometry x="-762.5" y="960" width="45" height="30" as="geometry" />
        </mxCell>
        <mxCell id="8sGMjqeMXZ33-afPzOO0-58" value="" style="shape=cross;whiteSpace=wrap;html=1;" vertex="1" parent="1">
          <mxGeometry x="-780" y="840" width="10" height="10" as="geometry" />
        </mxCell>
        <mxCell id="8sGMjqeMXZ33-afPzOO0-60" value="" style="rounded=0;whiteSpace=wrap;html=1;" vertex="1" parent="1">
          <mxGeometry x="-780.25" y="912.5" width="12.5" height="2.5" as="geometry" />
        </mxCell>
      </root>
    </mxGraphModel>
  </diagram>
</mxfile>
